<svg viewBox="0 0 292 292" xmlns="http://www.w3.org/2000/svg" fill-rule="evenodd" clip-rule="evenodd" stroke-miterlimit="1.5"><path d="M241.996 89.491A39.59 39.59 0 00202.404 49.9H87.574a39.589 39.589 0 00-39.592 39.591v114.831a39.589 39.589 0 0039.592 39.592h114.83a39.592 39.592 0 0039.592-39.592V89.491z" fill="none"/><clipPath id="a"><path d="M241.996 89.491A39.59 39.59 0 00202.404 49.9H87.574a39.589 39.589 0 00-39.592 39.591v114.831a39.589 39.589 0 0039.592 39.592h114.83a39.592 39.592 0 0039.592-39.592V89.491z"/></clipPath><g clip-path="url(#a)"><path d="M41.774 78.993l79.262 79.262a33.875 33.875 0 0047.906 0l79.262-79.262" fill="none" stroke="#000" stroke-width="22.92"/></g><path d="M268.093 89.491a65.688 65.688 0 00-65.689-65.688H87.574a65.689 65.689 0 00-65.689 65.688v114.831a65.69 65.69 0 0065.689 65.688h114.83a65.688 65.688 0 0065.689-65.688V89.491zm-26.097 0A39.59 39.59 0 00202.404 49.9H87.574a39.589 39.589 0 00-39.592 39.591v114.831a39.589 39.589 0 0039.592 39.592h114.83a39.592 39.592 0 0039.592-39.592V89.491z"/></svg>