<?xml version="1.0" encoding="UTF-8" standalone="no"?><!DOCTYPE svg PUBLIC "-//W3C//DTD SVG 1.1//EN" "http://www.w3.org/Graphics/SVG/1.1/DTD/svg11.dtd"><svg width="100%" height="100%" viewBox="0 0 292 292" version="1.1" xmlns="http://www.w3.org/2000/svg" xmlns:xlink="http://www.w3.org/1999/xlink" xml:space="preserve" xmlns:serif="http://www.serif.com/" style="fill-rule:evenodd;clip-rule:evenodd;stroke-miterlimit:1.5;"><g><path d="M241.996,89.491c0,-10.5 -4.171,-20.57 -11.596,-27.995c-7.425,-7.425 -17.495,-11.597 -27.996,-11.596l-114.83,0c-10.5,-0.001 -20.571,4.171 -27.996,11.596c-7.425,7.425 -11.596,17.495 -11.596,27.995l0,114.831c0,10.5 4.171,20.571 11.596,27.995c7.425,7.425 17.496,11.597 27.996,11.597l114.83,0c10.501,0 20.571,-4.172 27.996,-11.597c7.425,-7.424 11.596,-17.495 11.596,-27.995l0,-114.831Z" style="fill:none;"/><clipPath id="_clip1"><path d="M241.996,89.491c0,-10.5 -4.171,-20.57 -11.596,-27.995c-7.425,-7.425 -17.495,-11.597 -27.996,-11.596l-114.83,0c-10.5,-0.001 -20.571,4.171 -27.996,11.596c-7.425,7.425 -11.596,17.495 -11.596,27.995l0,114.831c0,10.5 4.171,20.571 11.596,27.995c7.425,7.425 17.496,11.597 27.996,11.597l114.83,0c10.501,0 20.571,-4.172 27.996,-11.597c7.425,-7.424 11.596,-17.495 11.596,-27.995l0,-114.831Z"/></clipPath><g clip-path="url(#_clip1)"><path d="M41.774,78.993c0,0 48.77,48.77 79.262,79.262c6.353,6.353 14.969,9.922 23.953,9.922c8.984,0 17.6,-3.569 23.953,-9.922c30.492,-30.492 79.262,-79.262 79.262,-79.262" style="fill:none;stroke:#000;stroke-width:22.92px;"/></g><path d="M268.093,89.491c0,-17.421 -6.921,-34.129 -19.24,-46.448c-12.319,-12.319 -29.027,-19.24 -46.449,-19.24c-33.515,0 -81.315,0 -114.83,0c-17.422,0 -34.13,6.921 -46.449,19.24c-12.319,12.319 -19.24,29.027 -19.24,46.448c0,33.516 0,81.315 0,114.831c0,17.421 6.921,34.13 19.24,46.449c12.319,12.319 29.027,19.239 46.449,19.239c33.515,0 81.315,0 114.83,0c17.422,0 34.13,-6.92 46.449,-19.239c12.319,-12.319 19.24,-29.028 19.24,-46.449c0,-33.516 0,-81.315 0,-114.831l0,0Zm-26.097,0c0,-10.5 -4.171,-20.57 -11.596,-27.995c-7.425,-7.425 -17.495,-11.597 -27.996,-11.596l-114.83,0c-10.5,-0.001 -20.571,4.171 -27.996,11.596c-7.425,7.425 -11.596,17.495 -11.596,27.995l0,114.831c0,10.5 4.171,20.571 11.596,27.995c7.425,7.425 17.496,11.597 27.996,11.597l114.83,0c10.501,0 20.571,-4.172 27.996,-11.597c7.425,-7.424 11.596,-17.495 11.596,-27.995l0,-114.831Z"/></g></svg>